<mxfile host="app.diagrams.net" modified="2023-09-20T10:01:03.134Z" agent="Mozilla/5.0 (Windows NT 10.0; Win64; x64) AppleWebKit/537.36 (KHTML, like Gecko) Chrome/116.0.0.0 Safari/537.36" etag="Jz3jl2ueWUAc6JCJ_FDz" version="21.7.5" type="github">
  <diagram id="C5RBs43oDa-KdzZeNtuy" name="Event_Triggers">
    <mxGraphModel dx="1050" dy="542" grid="1" gridSize="10" guides="1" tooltips="1" connect="1" arrows="1" fold="1" page="1" pageScale="1" pageWidth="827" pageHeight="1169" math="0" shadow="0">
      <root>
        <mxCell id="WIyWlLk6GJQsqaUBKTNV-0" />
        <mxCell id="WIyWlLk6GJQsqaUBKTNV-1" parent="WIyWlLk6GJQsqaUBKTNV-0" />
        <mxCell id="1wvFu6MvYdprL2qvK4ZT-50" value="" style="rounded=0;whiteSpace=wrap;html=1;fillColor=#e1d5e7;strokeColor=#9673a6;" vertex="1" parent="WIyWlLk6GJQsqaUBKTNV-1">
          <mxGeometry x="20" y="470" width="790" height="610" as="geometry" />
        </mxCell>
        <mxCell id="1wvFu6MvYdprL2qvK4ZT-49" value="" style="rounded=0;whiteSpace=wrap;html=1;fillColor=#dae8fc;strokeColor=#6c8ebf;" vertex="1" parent="WIyWlLk6GJQsqaUBKTNV-1">
          <mxGeometry x="10" y="20" width="800" height="430" as="geometry" />
        </mxCell>
        <mxCell id="1wvFu6MvYdprL2qvK4ZT-0" value="Supply / Demand Change for one node" style="rounded=1;whiteSpace=wrap;html=1;" vertex="1" parent="WIyWlLk6GJQsqaUBKTNV-1">
          <mxGeometry x="30" y="60" width="120" height="60" as="geometry" />
        </mxCell>
        <mxCell id="1wvFu6MvYdprL2qvK4ZT-8" style="edgeStyle=orthogonalEdgeStyle;rounded=0;orthogonalLoop=1;jettySize=auto;html=1;exitX=0.5;exitY=1;exitDx=0;exitDy=0;" edge="1" parent="WIyWlLk6GJQsqaUBKTNV-1" source="1wvFu6MvYdprL2qvK4ZT-1">
          <mxGeometry relative="1" as="geometry">
            <mxPoint x="310" y="230" as="targetPoint" />
            <Array as="points">
              <mxPoint x="310" y="170" />
              <mxPoint x="311" y="170" />
            </Array>
          </mxGeometry>
        </mxCell>
        <mxCell id="1wvFu6MvYdprL2qvK4ZT-9" value="No" style="edgeLabel;html=1;align=center;verticalAlign=middle;resizable=0;points=[];" vertex="1" connectable="0" parent="1wvFu6MvYdprL2qvK4ZT-8">
          <mxGeometry x="-0.1705" y="2" relative="1" as="geometry">
            <mxPoint as="offset" />
          </mxGeometry>
        </mxCell>
        <mxCell id="1wvFu6MvYdprL2qvK4ZT-1" value="Check if node belongs to Fulfilment &lt;br&gt;Rules&amp;nbsp;" style="rhombus;whiteSpace=wrap;html=1;" vertex="1" parent="WIyWlLk6GJQsqaUBKTNV-1">
          <mxGeometry x="250" y="30" width="120" height="120" as="geometry" />
        </mxCell>
        <mxCell id="1wvFu6MvYdprL2qvK4ZT-2" value="" style="endArrow=classic;html=1;rounded=0;exitX=1;exitY=0.5;exitDx=0;exitDy=0;entryX=0;entryY=0.5;entryDx=0;entryDy=0;" edge="1" parent="WIyWlLk6GJQsqaUBKTNV-1" source="1wvFu6MvYdprL2qvK4ZT-0" target="1wvFu6MvYdprL2qvK4ZT-1">
          <mxGeometry width="50" height="50" relative="1" as="geometry">
            <mxPoint x="170" y="100" as="sourcePoint" />
            <mxPoint x="220" y="50" as="targetPoint" />
          </mxGeometry>
        </mxCell>
        <mxCell id="1wvFu6MvYdprL2qvK4ZT-3" value="" style="endArrow=classic;html=1;rounded=0;exitX=1;exitY=0.5;exitDx=0;exitDy=0;" edge="1" parent="WIyWlLk6GJQsqaUBKTNV-1" source="1wvFu6MvYdprL2qvK4ZT-1">
          <mxGeometry width="50" height="50" relative="1" as="geometry">
            <mxPoint x="460" y="100" as="sourcePoint" />
            <mxPoint x="460" y="90" as="targetPoint" />
          </mxGeometry>
        </mxCell>
        <mxCell id="1wvFu6MvYdprL2qvK4ZT-5" value="Yes" style="text;html=1;align=center;verticalAlign=middle;resizable=0;points=[];autosize=1;strokeColor=none;fillColor=none;" vertex="1" parent="WIyWlLk6GJQsqaUBKTNV-1">
          <mxGeometry x="390" y="68" width="40" height="30" as="geometry" />
        </mxCell>
        <mxCell id="1wvFu6MvYdprL2qvK4ZT-31" style="edgeStyle=orthogonalEdgeStyle;rounded=0;orthogonalLoop=1;jettySize=auto;html=1;" edge="1" parent="WIyWlLk6GJQsqaUBKTNV-1" source="1wvFu6MvYdprL2qvK4ZT-6">
          <mxGeometry relative="1" as="geometry">
            <mxPoint x="730" y="480" as="targetPoint" />
          </mxGeometry>
        </mxCell>
        <mxCell id="1wvFu6MvYdprL2qvK4ZT-6" value="Publish Event to Internal topic with applicable channels &amp;amp; Node Type" style="shape=document;whiteSpace=wrap;html=1;boundedLbl=1;" vertex="1" parent="WIyWlLk6GJQsqaUBKTNV-1">
          <mxGeometry x="670" y="370" width="120" height="80" as="geometry" />
        </mxCell>
        <mxCell id="1wvFu6MvYdprL2qvK4ZT-7" value="End" style="ellipse;whiteSpace=wrap;html=1;aspect=fixed;" vertex="1" parent="WIyWlLk6GJQsqaUBKTNV-1">
          <mxGeometry x="285" y="240" width="50" height="50" as="geometry" />
        </mxCell>
        <mxCell id="1wvFu6MvYdprL2qvK4ZT-32" style="edgeStyle=orthogonalEdgeStyle;rounded=0;orthogonalLoop=1;jettySize=auto;html=1;" edge="1" parent="WIyWlLk6GJQsqaUBKTNV-1" source="1wvFu6MvYdprL2qvK4ZT-10" target="1wvFu6MvYdprL2qvK4ZT-14">
          <mxGeometry relative="1" as="geometry" />
        </mxCell>
        <mxCell id="1wvFu6MvYdprL2qvK4ZT-10" value="Consume Event from internal Topic" style="rounded=1;whiteSpace=wrap;html=1;" vertex="1" parent="WIyWlLk6GJQsqaUBKTNV-1">
          <mxGeometry x="680" y="490" width="120" height="60" as="geometry" />
        </mxCell>
        <mxCell id="1wvFu6MvYdprL2qvK4ZT-35" style="edgeStyle=orthogonalEdgeStyle;rounded=0;orthogonalLoop=1;jettySize=auto;html=1;exitX=0;exitY=0.5;exitDx=0;exitDy=0;" edge="1" parent="WIyWlLk6GJQsqaUBKTNV-1" source="1wvFu6MvYdprL2qvK4ZT-14">
          <mxGeometry relative="1" as="geometry">
            <mxPoint x="370" y="520" as="targetPoint" />
          </mxGeometry>
        </mxCell>
        <mxCell id="1wvFu6MvYdprL2qvK4ZT-14" value="Calculate Channel Availability &amp;amp; Inventory Level" style="rounded=1;whiteSpace=wrap;html=1;" vertex="1" parent="WIyWlLk6GJQsqaUBKTNV-1">
          <mxGeometry x="440" y="490" width="120" height="60" as="geometry" />
        </mxCell>
        <mxCell id="1wvFu6MvYdprL2qvK4ZT-16" style="edgeStyle=orthogonalEdgeStyle;rounded=0;orthogonalLoop=1;jettySize=auto;html=1;" edge="1" parent="WIyWlLk6GJQsqaUBKTNV-1" source="1wvFu6MvYdprL2qvK4ZT-15">
          <mxGeometry relative="1" as="geometry">
            <mxPoint x="660" y="90" as="targetPoint" />
          </mxGeometry>
        </mxCell>
        <mxCell id="1wvFu6MvYdprL2qvK4ZT-15" value="Identify Node Type" style="rounded=1;whiteSpace=wrap;html=1;" vertex="1" parent="WIyWlLk6GJQsqaUBKTNV-1">
          <mxGeometry x="460" y="60" width="120" height="60" as="geometry" />
        </mxCell>
        <mxCell id="1wvFu6MvYdprL2qvK4ZT-22" style="edgeStyle=orthogonalEdgeStyle;rounded=0;orthogonalLoop=1;jettySize=auto;html=1;exitX=0.5;exitY=1;exitDx=0;exitDy=0;" edge="1" parent="WIyWlLk6GJQsqaUBKTNV-1" source="1wvFu6MvYdprL2qvK4ZT-19">
          <mxGeometry relative="1" as="geometry">
            <mxPoint x="710" y="220" as="targetPoint" />
          </mxGeometry>
        </mxCell>
        <mxCell id="1wvFu6MvYdprL2qvK4ZT-27" value="Yes" style="edgeLabel;html=1;align=center;verticalAlign=middle;resizable=0;points=[];" vertex="1" connectable="0" parent="1wvFu6MvYdprL2qvK4ZT-22">
          <mxGeometry x="-0.4336" relative="1" as="geometry">
            <mxPoint as="offset" />
          </mxGeometry>
        </mxCell>
        <mxCell id="1wvFu6MvYdprL2qvK4ZT-24" style="edgeStyle=orthogonalEdgeStyle;rounded=0;orthogonalLoop=1;jettySize=auto;html=1;exitX=1;exitY=0.5;exitDx=0;exitDy=0;entryX=0.987;entryY=-0.06;entryDx=0;entryDy=0;entryPerimeter=0;" edge="1" parent="WIyWlLk6GJQsqaUBKTNV-1" source="1wvFu6MvYdprL2qvK4ZT-19" target="1wvFu6MvYdprL2qvK4ZT-6">
          <mxGeometry relative="1" as="geometry">
            <mxPoint x="800" y="160" as="targetPoint" />
          </mxGeometry>
        </mxCell>
        <mxCell id="1wvFu6MvYdprL2qvK4ZT-26" value="No" style="edgeLabel;html=1;align=center;verticalAlign=middle;resizable=0;points=[];" vertex="1" connectable="0" parent="1wvFu6MvYdprL2qvK4ZT-24">
          <mxGeometry x="-0.7839" y="4" relative="1" as="geometry">
            <mxPoint as="offset" />
          </mxGeometry>
        </mxCell>
        <mxCell id="1wvFu6MvYdprL2qvK4ZT-19" value="If the node a Store&amp;nbsp;" style="rhombus;whiteSpace=wrap;html=1;" vertex="1" parent="WIyWlLk6GJQsqaUBKTNV-1">
          <mxGeometry x="670" y="60" width="80" height="80" as="geometry" />
        </mxCell>
        <mxCell id="1wvFu6MvYdprL2qvK4ZT-25" style="edgeStyle=orthogonalEdgeStyle;rounded=0;orthogonalLoop=1;jettySize=auto;html=1;exitX=0.5;exitY=1;exitDx=0;exitDy=0;entryX=0.327;entryY=-0.01;entryDx=0;entryDy=0;entryPerimeter=0;" edge="1" parent="WIyWlLk6GJQsqaUBKTNV-1" source="1wvFu6MvYdprL2qvK4ZT-23" target="1wvFu6MvYdprL2qvK4ZT-6">
          <mxGeometry relative="1" as="geometry" />
        </mxCell>
        <mxCell id="1wvFu6MvYdprL2qvK4ZT-28" value="Yes" style="edgeLabel;html=1;align=center;verticalAlign=middle;resizable=0;points=[];" vertex="1" connectable="0" parent="1wvFu6MvYdprL2qvK4ZT-25">
          <mxGeometry x="-0.0914" y="4" relative="1" as="geometry">
            <mxPoint as="offset" />
          </mxGeometry>
        </mxCell>
        <mxCell id="1wvFu6MvYdprL2qvK4ZT-29" style="edgeStyle=orthogonalEdgeStyle;rounded=0;orthogonalLoop=1;jettySize=auto;html=1;" edge="1" parent="WIyWlLk6GJQsqaUBKTNV-1" source="1wvFu6MvYdprL2qvK4ZT-23">
          <mxGeometry relative="1" as="geometry">
            <mxPoint x="340" y="260" as="targetPoint" />
          </mxGeometry>
        </mxCell>
        <mxCell id="1wvFu6MvYdprL2qvK4ZT-30" value="No" style="edgeLabel;html=1;align=center;verticalAlign=middle;resizable=0;points=[];" vertex="1" connectable="0" parent="1wvFu6MvYdprL2qvK4ZT-29">
          <mxGeometry x="-0.7507" relative="1" as="geometry">
            <mxPoint as="offset" />
          </mxGeometry>
        </mxCell>
        <mxCell id="1wvFu6MvYdprL2qvK4ZT-23" value="Check if its Part of GM Stores Cache" style="rhombus;whiteSpace=wrap;html=1;" vertex="1" parent="WIyWlLk6GJQsqaUBKTNV-1">
          <mxGeometry x="670" y="220" width="80" height="80" as="geometry" />
        </mxCell>
        <mxCell id="1wvFu6MvYdprL2qvK4ZT-42" style="edgeStyle=orthogonalEdgeStyle;rounded=0;orthogonalLoop=1;jettySize=auto;html=1;" edge="1" parent="WIyWlLk6GJQsqaUBKTNV-1" source="1wvFu6MvYdprL2qvK4ZT-33">
          <mxGeometry relative="1" as="geometry">
            <mxPoint x="340" y="860" as="targetPoint" />
          </mxGeometry>
        </mxCell>
        <mxCell id="1wvFu6MvYdprL2qvK4ZT-45" value="Yes" style="edgeLabel;html=1;align=center;verticalAlign=middle;resizable=0;points=[];" vertex="1" connectable="0" parent="1wvFu6MvYdprL2qvK4ZT-42">
          <mxGeometry x="-0.0241" y="-3" relative="1" as="geometry">
            <mxPoint as="offset" />
          </mxGeometry>
        </mxCell>
        <mxCell id="1wvFu6MvYdprL2qvK4ZT-47" style="edgeStyle=orthogonalEdgeStyle;rounded=0;orthogonalLoop=1;jettySize=auto;html=1;exitX=1;exitY=0.5;exitDx=0;exitDy=0;entryX=1;entryY=0.5;entryDx=0;entryDy=0;" edge="1" parent="WIyWlLk6GJQsqaUBKTNV-1" source="1wvFu6MvYdprL2qvK4ZT-33" target="1wvFu6MvYdprL2qvK4ZT-43">
          <mxGeometry relative="1" as="geometry">
            <Array as="points">
              <mxPoint x="480" y="675" />
              <mxPoint x="480" y="1035" />
            </Array>
          </mxGeometry>
        </mxCell>
        <mxCell id="1wvFu6MvYdprL2qvK4ZT-33" value="Check if Last Published Inventory Level is different to current inventory Level" style="rhombus;whiteSpace=wrap;html=1;" vertex="1" parent="WIyWlLk6GJQsqaUBKTNV-1">
          <mxGeometry x="275" y="610" width="130" height="130" as="geometry" />
        </mxCell>
        <mxCell id="1wvFu6MvYdprL2qvK4ZT-36" style="edgeStyle=orthogonalEdgeStyle;rounded=0;orthogonalLoop=1;jettySize=auto;html=1;exitX=0;exitY=0.5;exitDx=0;exitDy=0;" edge="1" parent="WIyWlLk6GJQsqaUBKTNV-1" source="1wvFu6MvYdprL2qvK4ZT-34">
          <mxGeometry relative="1" as="geometry">
            <mxPoint x="170" y="520" as="targetPoint" />
          </mxGeometry>
        </mxCell>
        <mxCell id="1wvFu6MvYdprL2qvK4ZT-34" value="Calculate Channel Availability &amp;amp; Inventory Level" style="rounded=1;whiteSpace=wrap;html=1;" vertex="1" parent="WIyWlLk6GJQsqaUBKTNV-1">
          <mxGeometry x="240" y="490" width="120" height="60" as="geometry" />
        </mxCell>
        <mxCell id="1wvFu6MvYdprL2qvK4ZT-37" value="Publish Channel Availability Change Event for Channels" style="shape=document;whiteSpace=wrap;html=1;boundedLbl=1;" vertex="1" parent="WIyWlLk6GJQsqaUBKTNV-1">
          <mxGeometry x="285" y="870" width="120" height="80" as="geometry" />
        </mxCell>
        <mxCell id="1wvFu6MvYdprL2qvK4ZT-40" style="edgeStyle=orthogonalEdgeStyle;rounded=0;orthogonalLoop=1;jettySize=auto;html=1;exitX=0.5;exitY=1;exitDx=0;exitDy=0;" edge="1" parent="WIyWlLk6GJQsqaUBKTNV-1" source="1wvFu6MvYdprL2qvK4ZT-38">
          <mxGeometry relative="1" as="geometry">
            <mxPoint x="110" y="610" as="targetPoint" />
          </mxGeometry>
        </mxCell>
        <mxCell id="1wvFu6MvYdprL2qvK4ZT-38" value="Update Channel Availability Collection for Channels" style="rounded=1;whiteSpace=wrap;html=1;" vertex="1" parent="WIyWlLk6GJQsqaUBKTNV-1">
          <mxGeometry x="50" y="490" width="120" height="60" as="geometry" />
        </mxCell>
        <mxCell id="1wvFu6MvYdprL2qvK4ZT-41" style="edgeStyle=orthogonalEdgeStyle;rounded=0;orthogonalLoop=1;jettySize=auto;html=1;" edge="1" parent="WIyWlLk6GJQsqaUBKTNV-1" source="1wvFu6MvYdprL2qvK4ZT-39">
          <mxGeometry relative="1" as="geometry">
            <mxPoint x="260" y="685" as="targetPoint" />
          </mxGeometry>
        </mxCell>
        <mxCell id="1wvFu6MvYdprL2qvK4ZT-46" style="edgeStyle=orthogonalEdgeStyle;rounded=0;orthogonalLoop=1;jettySize=auto;html=1;exitX=0.5;exitY=1;exitDx=0;exitDy=0;entryX=0;entryY=0.5;entryDx=0;entryDy=0;" edge="1" parent="WIyWlLk6GJQsqaUBKTNV-1" source="1wvFu6MvYdprL2qvK4ZT-39" target="1wvFu6MvYdprL2qvK4ZT-43">
          <mxGeometry relative="1" as="geometry" />
        </mxCell>
        <mxCell id="1wvFu6MvYdprL2qvK4ZT-39" value="Check if Channel Need Inventory Publish Event" style="rhombus;whiteSpace=wrap;html=1;" vertex="1" parent="WIyWlLk6GJQsqaUBKTNV-1">
          <mxGeometry x="50" y="630" width="140" height="110" as="geometry" />
        </mxCell>
        <mxCell id="1wvFu6MvYdprL2qvK4ZT-43" value="End" style="ellipse;whiteSpace=wrap;html=1;aspect=fixed;" vertex="1" parent="WIyWlLk6GJQsqaUBKTNV-1">
          <mxGeometry x="315" y="1010" width="50" height="50" as="geometry" />
        </mxCell>
        <mxCell id="1wvFu6MvYdprL2qvK4ZT-44" value="Yes" style="text;html=1;align=center;verticalAlign=middle;resizable=0;points=[];autosize=1;strokeColor=none;fillColor=none;" vertex="1" parent="WIyWlLk6GJQsqaUBKTNV-1">
          <mxGeometry x="190" y="668" width="40" height="30" as="geometry" />
        </mxCell>
        <mxCell id="1wvFu6MvYdprL2qvK4ZT-48" value="No" style="text;html=1;align=center;verticalAlign=middle;resizable=0;points=[];autosize=1;strokeColor=none;fillColor=none;" vertex="1" parent="WIyWlLk6GJQsqaUBKTNV-1">
          <mxGeometry x="410" y="658" width="40" height="30" as="geometry" />
        </mxCell>
      </root>
    </mxGraphModel>
  </diagram>
</mxfile>
